<?xml version="1.0" standalone="no"?>
<!DOCTYPE svg PUBLIC "-//W3C//DTD SVG 20010904//EN"
 "http://www.w3.org/TR/2001/REC-SVG-20010904/DTD/svg10.dtd">
<svg version="1.0" xmlns="http://www.w3.org/2000/svg"
 width="512.000000pt" height="512.000000pt" viewBox="0 0 512.000000 512.000000"
 preserveAspectRatio="xMidYMid meet">

<g transform="translate(0.000000,512.000000) scale(0.100000,-0.100000)"
fill="#FFDB6E" stroke="none">
<path d="M2035 5114 c-27 -2 -117 -8 -200 -14 -913 -68 -1574 -344 -1723 -720
l-22 -55 2 -1690 3 -1690 38 -76 c144 -289 643 -520 1357 -628 290 -44 458
-55 840 -55 352 0 534 10 765 43 l60 9 75 -48 c137 -87 271 -141 425 -171 101
-20 330 -18 435 4 234 50 428 155 595 322 167 166 271 360 322 596 21 101 24
342 4 434 -54 258 -168 465 -349 638 l-82 77 0 1118 c0 1104 0 1118 -21 1171
-65 171 -249 332 -516 451 -305 135 -667 220 -1143 266 -144 14 -750 27 -865
18z m844 -199 c789 -79 1378 -301 1499 -564 41 -89 22 -168 -61 -259 -206
-224 -750 -405 -1415 -472 -321 -32 -813 -32 -1134 0 -749 76 -1338 297 -1476
555 -24 44 -21 140 5 191 78 148 341 300 700 403 307 89 567 130 1048 165 117
9 690 -4 834 -19z m-2469 -1094 c421 -282 1251 -436 2170 -401 825 32 1422
192 1793 480 l27 22 0 -380 c0 -261 -4 -390 -12 -413 -36 -106 -145 -202 -343
-299 -328 -161 -776 -264 -1320 -301 -221 -15 -779 -6 -975 15 -566 63 -1026
198 -1285 377 -90 62 -139 114 -171 183 -24 51 -24 51 -24 435 l0 383 38 -28
c20 -16 66 -49 102 -73z m-101 -1005 c44 -40 160 -114 255 -160 316 -156 749
-257 1276 -301 243 -20 747 -20 985 0 679 56 1195 205 1500 433 l70 52 3 -311
c1 -172 0 -314 -3 -317 -2 -3 -35 9 -72 26 -243 110 -564 124 -831 35 -167
-55 -360 -178 -476 -304 -118 -127 -215 -291 -266 -450 l-21 -66 -76 -7 c-115
-9 -529 -7 -698 4 -827 56 -1510 287 -1657 561 -23 44 -23 47 -26 437 -2 215
0 392 5 392 4 0 18 -11 32 -24z m3679 -671 c94 -9 224 -50 325 -102 473 -244
668 -814 442 -1291 -104 -219 -258 -373 -477 -477 -148 -70 -243 -90 -423 -89
-165 1 -237 15 -380 75 -387 161 -631 570 -593 997 41 468 414 846 881 891 80
8 97 8 225 -4z m-3568 -488 c253 -159 645 -282 1110 -346 264 -37 425 -46 802
-46 l367 0 0 -112 c1 -243 75 -468 227 -678 30 -42 54 -77 54 -79 0 -1 -80 -9
-177 -17 -224 -18 -780 -18 -958 -1 -821 81 -1416 298 -1550 566 l-25 50 0
389 0 388 48 -39 c26 -22 72 -56 102 -75z"/>
<path d="M4365 1695 c-21 -11 -102 -120 -284 -380 -139 -201 -255 -365 -257
-365 -2 0 -86 67 -186 149 -100 82 -192 152 -205 156 -39 9 -91 -22 -102 -62
-6 -20 -6 -44 -1 -57 5 -13 113 -109 242 -215 212 -174 236 -191 271 -191 26
0 45 7 60 22 24 24 556 787 577 827 19 37 4 89 -33 111 -38 24 -43 24 -82 5z"/>
</g>
</svg>
