<?xml version="1.0" standalone="no"?>
<!DOCTYPE svg PUBLIC "-//W3C//DTD SVG 20010904//EN"
 "http://www.w3.org/TR/2001/REC-SVG-20010904/DTD/svg10.dtd">
<svg version="1.0" xmlns="http://www.w3.org/2000/svg"
 width="512.000000pt" height="512.000000pt" viewBox="0 0 512.000000 512.000000"
 preserveAspectRatio="xMidYMid meet">

<g transform="translate(0.000000,512.000000) scale(0.100000,-0.100000)"
fill="#000000" stroke="none">
<path d="M2405 5113 c-769 -47 -1477 -439 -1927 -1068 -242 -338 -399 -740
-459 -1175 -19 -131 -19 -524 0 -567 31 -75 136 -87 173 -20 8 15 12 95 14
257 1 160 7 269 18 340 78 499 283 928 615 1285 652 701 1652 937 2549 602 45
-17 82 -34 82 -38 0 -4 -18 -18 -41 -31 -42 -24 -69 -62 -69 -98 0 -52 49
-100 102 -100 28 0 265 136 306 176 21 22 32 42 32 61 0 34 -139 286 -177 321
-58 53 -163 3 -163 -78 0 -11 -3 -20 -6 -20 -4 0 -63 18 -133 40 -283 91 -614
132 -916 113z"/>
<path d="M4296 5088 c-33 -32 -497 -632 -565 -731 -43 -64 -84 -156 -107 -242
-25 -95 -25 -293 0 -384 61 -223 210 -404 410 -501 130 -62 185 -75 326 -75
141 0 196 13 326 75 200 97 349 278 410 501 25 91 25 289 0 384 -23 86 -64
178 -106 240 -95 138 -555 733 -578 747 -41 27 -78 23 -116 -14z m291 -528
c244 -320 271 -361 301 -453 69 -212 15 -437 -142 -592 -84 -82 -146 -118
-252 -145 -98 -25 -170 -25 -268 0 -106 27 -168 63 -253 146 -122 119 -184
284 -169 451 8 88 36 181 73 246 37 62 476 637 485 634 4 -1 105 -130 225
-287z"/>
<path d="M4634 4005 c-25 -17 -40 -53 -49 -116 -7 -59 -53 -131 -103 -164 -23
-15 -65 -30 -103 -36 -73 -12 -106 -36 -115 -85 -12 -63 35 -113 106 -114 193
0 368 150 407 349 18 89 13 122 -22 157 -28 28 -88 33 -121 9z"/>
<path d="M2504 4522 c-30 -24 -1028 -1300 -1092 -1396 -175 -261 -256 -589
-223 -899 68 -625 534 -1120 1151 -1222 109 -19 331 -19 440 0 672 112 1160
691 1160 1377 0 225 -83 508 -205 703 -54 86 -1028 1348 -1094 1418 -29 31
-42 37 -76 37 -23 0 -49 -8 -61 -18z m548 -867 c256 -330 482 -627 503 -659
293 -459 229 -1063 -153 -1453 -156 -159 -349 -270 -568 -325 -76 -19 -115
-23 -274 -23 -159 0 -198 4 -274 23 -483 122 -831 513 -896 1005 -35 271 36
567 191 797 24 36 255 334 513 663 373 476 472 595 481 585 7 -7 221 -283 477
-613z"/>
<path d="M3404 2662 c-52 -41 -55 -109 -8 -153 54 -50 146 -18 160 57 11 58
-35 114 -96 114 -19 0 -45 -8 -56 -18z"/>
<path d="M3383 2260 c-25 -15 -36 -32 -49 -77 -64 -223 -207 -394 -421 -502
-95 -47 -119 -112 -65 -172 40 -44 87 -43 178 5 207 109 380 298 463 506 44
112 53 172 30 210 -31 51 -83 63 -136 30z"/>
<path d="M4928 2949 c-30 -30 -31 -32 -24 -102 24 -269 16 -485 -25 -707 -86
-457 -301 -875 -622 -1207 -383 -396 -828 -626 -1377 -710 -141 -21 -481 -24
-615 -4 -165 24 -439 90 -488 118 -5 3 14 20 42 39 61 41 81 69 81 112 0 24
-9 42 -30 64 -47 47 -89 37 -230 -52 -205 -128 -207 -137 -89 -326 102 -163
108 -169 165 -169 38 0 50 5 70 28 13 15 24 39 24 53 0 13 3 24 6 24 4 0 47
-11 98 -25 267 -72 582 -99 856 -74 761 69 1430 449 1872 1064 350 487 518
1101 467 1702 -15 170 -33 203 -114 203 -27 0 -44 -8 -67 -31z"/>
<path d="M696 2048 c-33 -31 -495 -630 -565 -731 -87 -127 -126 -262 -125
-437 1 -234 76 -407 249 -568 86 -80 210 -149 325 -179 100 -27 284 -24 380 6
266 82 463 285 536 552 25 91 25 289 0 384 -23 86 -64 178 -107 242 -92 134
-553 730 -577 745 -41 27 -78 23 -116 -14z m285 -519 c241 -317 282 -378 309
-466 46 -148 36 -290 -31 -432 -31 -67 -54 -99 -112 -155 -85 -83 -147 -119
-253 -146 -98 -25 -170 -25 -268 0 -106 27 -168 63 -252 145 -128 127 -189
298 -167 473 16 129 55 213 166 359 250 331 383 502 388 502 3 1 102 -125 220
-280z"/>
<path d="M1037 969 c-24 -14 -43 -56 -50 -112 -16 -116 -89 -189 -208 -208
-73 -12 -106 -36 -115 -85 -12 -63 35 -113 106 -114 196 0 374 156 411 361 14
77 8 111 -26 145 -26 26 -84 32 -118 13z"/>
</g>
</svg>
