<?xml version="1.0" standalone="no"?>
<!DOCTYPE svg PUBLIC "-//W3C//DTD SVG 20010904//EN"
 "http://www.w3.org/TR/2001/REC-SVG-20010904/DTD/svg10.dtd">
<svg version="1.0" xmlns="http://www.w3.org/2000/svg"
 width="512.000000pt" height="512.000000pt" viewBox="0 0 512.000000 512.000000"
 preserveAspectRatio="xMidYMid meet">

<g transform="translate(0.000000,512.000000) scale(0.100000,-0.100000)"
fill="#FFDB6E" stroke="none">
<path d="M2224 5006 c-83 -39 -133 -121 -134 -221 -2 -212 -168 -399 -387
-437 -134 -23 -264 15 -373 108 -71 61 -122 84 -188 84 -89 0 -121 -23 -339
-243 -213 -216 -223 -231 -223 -328 1 -57 26 -111 84 -179 60 -70 93 -140 108
-229 46 -266 -170 -528 -437 -531 -100 -1 -182 -51 -221 -134 -23 -50 -24 -57
-24 -336 0 -279 1 -286 24 -336 39 -83 121 -133 221 -134 267 -3 483 -265 437
-531 -15 -89 -48 -159 -108 -229 -60 -70 -84 -122 -84 -186 0 -89 18 -115 223
-323 211 -212 251 -241 342 -241 63 0 115 24 185 84 149 127 326 150 508 64
146 -68 251 -232 252 -393 1 -100 51 -182 134 -221 50 -23 57 -24 336 -24 279
0 286 1 336 24 83 39 133 121 134 221 1 160 104 320 250 391 181 88 360 66
510 -62 70 -60 122 -84 185 -84 88 0 125 26 329 228 207 205 236 247 236 337
0 63 -24 115 -84 185 -128 150 -150 329 -62 510 71 146 231 249 391 250 100 1
182 51 221 134 23 50 24 57 24 336 0 279 -1 286 -24 336 -39 83 -121 133 -221
134 -160 1 -320 104 -391 250 -88 181 -66 360 62 510 60 70 84 122 84 185 0
91 -29 131 -241 342 -208 205 -234 223 -323 223 -64 0 -116 -24 -186 -84 -146
-125 -336 -149 -509 -63 -147 72 -250 232 -251 392 -1 100 -51 182 -134 221
-50 23 -57 24 -336 24 -279 0 -286 -1 -336 -24z m631 -139 c24 -20 28 -34 36
-111 26 -253 172 -440 409 -522 197 -69 420 -25 583 116 47 40 66 50 95 50 34
0 49 -13 229 -193 180 -180 193 -195 193 -229 0 -29 -10 -48 -50 -95 -141
-163 -185 -386 -116 -583 82 -237 269 -383 522 -409 77 -8 91 -12 111 -36 23
-26 23 -29 23 -295 0 -266 0 -269 -23 -295 -20 -24 -34 -28 -111 -36 -254 -26
-440 -171 -522 -409 -69 -197 -25 -420 116 -583 40 -47 50 -66 50 -95 0 -34
-13 -49 -193 -229 -180 -180 -195 -193 -229 -193 -29 0 -48 10 -95 50 -163
141 -386 185 -583 116 -238 -82 -383 -268 -409 -522 -8 -77 -12 -91 -36 -111
-26 -23 -29 -23 -295 -23 -266 0 -269 0 -295 23 -24 20 -28 34 -36 111 -21
208 -120 368 -291 469 -224 133 -503 108 -701 -63 -47 -40 -66 -50 -95 -50
-34 0 -49 13 -229 193 -180 180 -193 195 -193 229 0 29 10 48 50 95 141 163
185 386 116 583 -82 237 -269 383 -522 409 -77 8 -91 12 -111 36 -23 26 -23
29 -23 295 0 266 0 269 23 295 20 24 34 28 107 36 161 16 271 66 379 172 226
223 239 578 31 820 -40 47 -50 66 -50 95 0 34 13 49 193 229 180 180 195 193
229 193 29 0 48 -10 95 -50 242 -208 597 -195 820 31 106 108 156 218 172 379
8 73 12 87 36 107 26 23 29 23 295 23 266 0 269 0 295 -23z"/>
<path d="M2310 3983 c-195 -34 -426 -131 -593 -250 -104 -74 -256 -226 -330
-330 -122 -171 -217 -400 -251 -602 -21 -124 -21 -358 0 -482 34 -202 129
-430 253 -603 72 -102 225 -255 327 -327 173 -124 401 -219 603 -253 124 -21
358 -21 482 0 381 64 741 296 955 615 111 168 196 379 228 568 21 124 21 358
0 482 -34 202 -129 430 -253 603 -73 104 -225 256 -326 327 -175 124 -402 219
-604 253 -119 20 -374 20 -491 -1z m473 -138 c264 -46 505 -172 697 -365 193
-192 319 -433 365 -697 19 -110 19 -336 0 -446 -83 -476 -433 -875 -895 -1021
-146 -47 -246 -59 -435 -53 -139 4 -188 9 -267 30 -506 133 -885 539 -973
1044 -19 110 -19 336 0 446 93 535 521 965 1057 1062 102 18 346 18 451 0z"/>
<path d="M1958 2803 c-171 -170 -218 -223 -218 -243 0 -35 424 -460 458 -460
29 0 72 43 72 71 0 16 -55 78 -182 206 l-182 183 182 183 c127 128 182 190
182 206 0 28 -43 71 -72 71 -15 0 -86 -64 -240 -217z"/>
<path d="M2875 2995 c-14 -13 -25 -34 -25 -46 0 -16 55 -78 182 -206 l182
-183 -182 -183 c-127 -128 -182 -190 -182 -206 0 -28 43 -71 72 -71 34 0 458
425 458 460 0 35 -424 460 -458 460 -13 0 -34 -11 -47 -25z"/>
<path d="M2607 2982 c-18 -20 -207 -749 -207 -799 0 -16 8 -37 18 -46 24 -22
75 -22 95 1 18 19 207 750 207 799 0 16 -8 37 -18 46 -24 22 -75 22 -95 -1z"/>
</g>
</svg>
