<?xml version="1.0" standalone="no"?>
<!DOCTYPE svg PUBLIC "-//W3C//DTD SVG 20010904//EN"
 "http://www.w3.org/TR/2001/REC-SVG-20010904/DTD/svg10.dtd">
<svg version="1.0" xmlns="http://www.w3.org/2000/svg"
 width="512.000000pt" height="512.000000pt" viewBox="0 0 512.000000 512.000000"
 preserveAspectRatio="xMidYMid meet">

<g transform="translate(0.000000,512.000000) scale(0.100000,-0.100000)"
fill="#FFDB6E" stroke="none">
<path d="M240 5027 c-49 -16 -133 -102 -148 -153 -17 -60 -17 -3448 0 -3508
16 -55 99 -138 154 -154 30 -9 186 -12 578 -12 l536 0 0 -535 0 -536 25 -24
24 -25 351 0 351 0 24 25 25 24 0 536 0 535 80 0 80 0 0 -535 0 -536 25 -24
24 -25 351 0 351 0 24 25 25 24 0 536 0 535 80 0 80 0 0 -535 0 -536 25 -24
24 -25 351 0 351 0 24 25 25 24 0 536 0 535 80 0 80 0 0 -535 0 -536 25 -24
24 -25 351 0 351 0 24 25 25 24 0 1471 0 1471 -25 24 c-24 25 -24 25 -240 25
l-215 0 0 856 c0 633 -3 867 -12 896 -6 22 -31 62 -55 88 -79 88 125 80 -2177
79 -1458 -1 -2051 -4 -2076 -12z m4135 -172 c25 -24 25 -24 25 -240 l0 -215
-2080 0 -2080 0 0 215 c0 216 0 216 25 240 l24 25 2031 0 2031 0 24 -25z m25
-1175 l0 -560 -55 0 c-46 0 -60 -4 -80 -25 l-25 -24 0 -856 0 -855 -80 0 -80
0 0 615 0 616 -25 24 -24 25 -351 0 -351 0 -24 -25 -25 -24 0 -616 0 -615 -80
0 -80 0 0 375 0 376 -25 24 -24 25 -351 0 -351 0 -24 -25 -25 -24 0 -376 0
-375 -80 0 -80 0 0 135 c0 131 -1 137 -25 160 l-24 25 -351 0 -351 0 -24 -25
c-24 -23 -25 -29 -25 -160 l0 -135 -535 0 -536 0 -24 25 -25 24 0 1416 0 1415
2080 0 2080 0 0 -560z m480 -2080 l0 -1360 -240 0 -240 0 0 1360 0 1360 240 0
240 0 0 -1360z m-960 -240 l0 -1120 -240 0 -240 0 0 1120 0 1120 240 0 240 0
0 -1120z m-960 -240 l0 -880 -240 0 -240 0 0 880 0 880 240 0 240 0 0 -880z
m-960 -240 l0 -640 -240 0 -240 0 0 640 0 640 240 0 240 0 0 -640z"/>
<path d="M400 4640 l0 -80 240 0 240 0 0 80 0 80 -240 0 -240 0 0 -80z"/>
<path d="M1040 4640 l0 -80 80 0 80 0 0 80 0 80 -80 0 -80 0 0 -80z"/>
<path d="M1125 4066 c-367 -71 -647 -354 -711 -718 -89 -510 288 -988 810
-1025 81 -6 85 -5 110 20 l26 26 0 376 0 375 375 0 376 0 26 26 c25 25 26 29
20 110 -27 384 -284 692 -662 796 -92 25 -276 32 -370 14z m367 -179 c117 -37
203 -90 294 -181 112 -112 183 -245 200 -377 l7 -49 -342 0 -341 0 -256 219
c-140 121 -256 223 -257 228 0 4 32 31 71 60 77 55 197 107 284 123 89 16 253
5 340 -23z m-544 -507 l251 -215 1 -337 0 -338 -29 0 c-54 0 -185 49 -267 100
-91 55 -189 154 -243 244 -18 31 -47 95 -64 143 -29 82 -31 97 -31 223 0 119
4 145 27 215 28 84 83 188 96 183 4 -2 121 -100 259 -218z"/>
<path d="M2825 4055 c-25 -24 -25 -26 -25 -215 0 -189 0 -191 25 -215 l24 -25
591 0 591 0 24 25 c25 24 25 26 25 215 0 189 0 191 -25 215 l-24 25 -591 0
-591 0 -24 -25z m1095 -215 l0 -80 -480 0 -480 0 0 80 0 80 480 0 480 0 0 -80z"/>
<path d="M2880 3360 l0 -80 400 0 400 0 0 80 0 80 -400 0 -400 0 0 -80z"/>
<path d="M3840 3360 l0 -80 80 0 80 0 0 80 0 80 -80 0 -80 0 0 -80z"/>
<path d="M2880 3040 l0 -80 400 0 400 0 0 80 0 80 -400 0 -400 0 0 -80z"/>
<path d="M3840 3040 l0 -80 80 0 80 0 0 80 0 80 -80 0 -80 0 0 -80z"/>
<path d="M1545 2935 l-25 -24 0 -431 0 -431 25 -24 c29 -30 85 -32 205 -11
177 32 332 111 460 236 160 155 251 350 267 572 6 83 5 87 -20 112 l-26 26
-431 0 -431 0 -24 -25z m761 -187 c-16 -116 -93 -265 -189 -367 -97 -101 -264
-191 -385 -207 l-52 -7 0 317 0 316 316 0 317 0 -7 -52z"/>
</g>
</svg>
